<?xml version="1.0" standalone="no"?>
<!DOCTYPE svg PUBLIC "-//W3C//DTD SVG 20010904//EN"
 "http://www.w3.org/TR/2001/REC-SVG-20010904/DTD/svg10.dtd">
<svg version="1.0" xmlns="http://www.w3.org/2000/svg"
 width="348.000000pt" height="348.000000pt" viewBox="0 0 348.000000 348.000000"
 preserveAspectRatio="xMidYMid meet">

<g transform="translate(0.000000,348.000000) scale(0.100000,-0.100000)"
fill="#000000" stroke="none">
<path d="M40 1735 l0 -1695 1695 0 1695 0 0 1695 0 1695 -1695 0 -1695 0 0
-1695z m3370 0 l0 -1675 -1675 0 -1675 0 0 1675 0 1675 1675 0 1675 0 0 -1675z"/>
<path d="M843 3259 c-24 -4 -49 -12 -57 -16 -29 -16 -186 -155 -186 -164 0
-32 37 -14 118 55 105 90 126 96 320 96 114 0 133 -3 196 -27 47 -19 82 -41
107 -68 181 -194 194 -222 194 -425 0 -102 -4 -152 -13 -168 -21 -36 -89 -59
-214 -73 -101 -11 -124 -10 -208 5 -52 10 -108 25 -124 32 -16 8 -38 14 -49
14 -20 0 -20 -6 -13 -567 8 -701 14 -863 32 -863 7 0 15 4 18 9 3 4 1 311 -5
680 -7 370 -9 674 -6 677 2 3 57 -5 121 -17 108 -22 124 -22 237 -11 95 10
133 18 177 40 78 37 86 56 90 219 6 204 -18 269 -157 421 -79 87 -96 100 -164
130 -75 32 -79 32 -224 31 -81 -1 -167 -5 -190 -10z"/>
<path d="M2945 3230 c-46 -10 -79 -35 -103 -79 -56 -98 4 -215 119 -236 72
-13 168 53 184 126 25 111 -85 215 -200 189z m114 -39 c95 -67 90 -187 -10
-239 -97 -51 -209 14 -209 121 0 67 31 109 97 132 44 15 88 10 122 -14z"/>
<path d="M1882 2573 l3 -318 139 -3 c137 -3 138 -3 132 -25 -24 -83 -36 -172
-36 -260 0 -203 66 -374 191 -499 107 -107 268 -142 393 -85 l56 26 15 -29
c25 -49 92 -98 151 -110 212 -44 360 213 207 362 -39 38 -97 68 -132 68 -18 0
-19 2 -5 53 114 412 -119 852 -441 835 l-65 -3 0 137 c0 75 -3 143 -6 152 -5
14 -42 16 -305 16 l-299 0 2 -317z m568 138 l0 -139 -54 -31 c-70 -39 -138
-109 -182 -188 l-36 -63 -129 0 -129 0 0 280 0 280 265 0 265 0 0 -139z m252
-192 c225 -113 338 -452 253 -756 -16 -57 -19 -61 -56 -72 -83 -25 -148 -113
-149 -199 0 -42 -1 -43 -52 -67 -69 -32 -164 -34 -244 -4 -113 43 -225 189
-270 354 -9 34 -18 113 -20 180 -3 101 0 134 19 205 l22 85 129 3 c75 1 135 7
143 14 10 8 13 46 13 143 0 154 -6 146 102 140 42 -2 82 -12 110 -26z m-254
-111 l-3 -113 -107 -3 c-60 -1 -108 0 -108 4 0 12 43 78 77 118 32 39 118 106
135 106 5 0 7 -51 6 -112z m609 -769 c92 -44 124 -170 66 -253 -56 -79 -162
-102 -246 -53 -24 14 -52 41 -62 61 l-19 35 50 53 c28 29 66 81 85 115 39 72
54 77 126 42z m-147 6 c0 -13 -69 -112 -94 -134 -22 -21 -26 -22 -26 -7 0 33
27 82 64 114 34 29 56 40 56 27z"/>
<path d="M900 911 c0 -36 33 -52 57 -28 24 24 8 57 -28 57 -25 0 -29 -4 -29
-29z"/>
</g>
</svg>
